<?xml version="1.0" standalone="no"?>
<!DOCTYPE svg PUBLIC "-//W3C//DTD SVG 20010904//EN"
 "http://www.w3.org/TR/2001/REC-SVG-20010904/DTD/svg10.dtd">
<svg version="1.0" xmlns="http://www.w3.org/2000/svg"
 width="820.000000pt" height="642.000000pt" viewBox="0 0 820.000000 642.000000"
 preserveAspectRatio="xMidYMid meet">

<g transform="translate(0.000000,642.000000) scale(0.100000,-0.100000)"
fill="#000000" stroke="none">
<path d="M573 6009 c-75 -13 -155 -45 -223 -90 -152 -102 -250 -289 -250 -479
0 -72 32 -197 67 -263 38 -72 164 -195 239 -235 129 -67 -186 -62 3692 -62
3880 0 3562 -5 3696 62 74 37 199 161 239 235 117 219 74 498 -102 672 -70 69
-147 116 -241 148 -53 17 -181 18 -3560 19 -1936 1 -3528 -2 -3557 -7z"/>
<path d="M590 3649 c-214 -31 -398 -188 -463 -394 -31 -98 -31 -242 0 -340 57
-182 203 -322 398 -382 58 -17 158 -18 2445 -18 l2385 0 79 24 c391 121 532
586 277 909 -57 72 -167 146 -265 180 l-81 27 -2360 1 c-1298 1 -2385 -2
-2415 -7z"/>
<path d="M521 1274 c-91 -24 -171 -73 -251 -154 -87 -86 -122 -147 -150 -256
-36 -139 -23 -258 42 -393 67 -140 189 -244 348 -298 52 -17 129 -18 1555 -21
1108 -2 1520 0 1575 8 151 24 281 101 371 221 179 236 146 565 -75 767 -64 58
-173 114 -254 131 -37 8 -508 11 -1580 10 -1300 0 -1535 -2 -1581 -15z"/>
</g>
</svg>
